# File created by Blade
# Date/Time:  Tue Apr 07 20:29:34 2015
# Frame Rate: 120.000 fps
#------------------------------------------------------
:FULLY-SPECIFIED
:DEGREES
2525
root 2.947125 33.826666 -5.372113 20.707472 -29.168365 -33.524096
Spine 2.470801 17.134056 15.678881
Head 9.648340 -0.054466 12.075078
LeftShoulder -19.985644 40.798816 20.846553
LeftArm 53.487200 -50.514841 -67.221916
LeftForeArm 1.094735 -0.000000 9.247860
LeftHand 10.288754 -0.000000 5.249584
LeftHandThumb1 -26.253704 0.000000 33.147579
RightShoulder 1.674501 7.982647 -17.942830
RightArm 26.462274 -11.870476 70.576960
RightForeArm -6.664551 0.000000 15.819883
RightHand 5.019683 0.000000 8.001115
RightHandThumb1 -24.326973 -0.000000 -32.862282
LeftUpLeg -10.975766 11.843012 22.240468
LeftLeg 17.543655 -0.000000 -0.000000
LeftFoot -17.698212 12.735928 -21.510307
LeftToeBase -2.186023 -0.000000 0.000000
RightUpLeg -78.850935 -46.346230 -3.345608
RightLeg 83.240089 -0.000000 -0.000000
RightFoot 39.462718 -21.775155 4.511080
RightToeBase 33.250437 -0.000000 -0.000000
2526
root 2.932395 33.834264 -5.356580 20.716047 -29.208915 -33.803254
Spine 2.625269 17.243788 15.956840
Head 9.516148 -0.059408 12.026966
LeftShoulder -20.052419 40.772788 20.764885
LeftArm 53.587970 -50.601860 -67.263200
LeftForeArm 1.430896 -0.000000 9.146407
LeftHand 10.260842 -0.000000 5.041975
LeftHandThumb1 -26.253704 0.000000 33.147579
RightShoulder 1.728253 8.031505 -17.975156
RightArm 26.496271 -11.897172 70.501587
RightForeArm -6.617866 -0.000000 15.871705
RightHand 4.608421 -0.000000 7.963796
RightHandThumb1 -24.326973 -0.000000 -32.862282
LeftUpLeg -10.946007 11.726094 22.499143
LeftLeg 17.842997 -0.000000 -0.000000
LeftFoot -17.429033 13.223884 -21.194610
LeftToeBase -2.282239 -0.000000 0.000000
RightUpLeg -78.858263 -46.330997 -3.745895
RightLeg 82.533900 -0.000000 -0.000000
RightFoot 39.670322 -20.960277 4.238868
RightToeBase 33.318502 -0.000000 -0.000000
2527
root 2.913577 33.844664 -5.339809 20.714879 -29.195150 -34.177953
Spine 2.838249 17.318749 16.373803
Head 9.390053 -0.058141 11.950444
LeftShoulder -20.153451 40.795481 20.674176
LeftArm 54.078181 -50.771219 -67.750331
LeftForeArm 2.037983 0.000000 8.978364
LeftHand 10.197118 0.000000 4.829804
LeftHandThumb1 -26.253704 0.000000 33.147579
RightShoulder 1.777035 8.054639 -18.026819
RightArm 26.564085 -11.950856 70.391785
RightForeArm -6.616297 -0.000000 15.878736
RightHand 4.783308 -0.000000 7.907523
RightHandThumb1 -24.326973 -0.000000 -32.862282
LeftUpLeg -10.813116 11.604874 22.862615
LeftLeg 18.050920 -0.000000 -0.000000
LeftFoot -17.318997 13.628079 -20.943262
LeftToeBase -2.413573 -0.000000 0.000000
RightUpLeg -78.844376 -46.395090 -4.056330
RightLeg 81.801858 -0.000000 -0.000000
RightFoot 39.962183 -20.181598 3.992818
RightToeBase 33.194520 -0.000000 -0.000000
2528
root 2.891166 33.857388 -5.316448 20.703700 -29.237660 -34.627873
Spine 3.105299 17.442487 16.878728
Head 9.318217 -0.035682 11.815694
LeftShoulder -20.228437 40.827191 20.537214
LeftArm 54.201470 -50.825133 -67.857348
LeftForeArm 2.354404 -0.000000 8.956097
LeftHand 10.143814 -0.000000 4.748036
LeftHandThumb1 -26.253704 0.000000 33.147579
RightShoulder 1.811138 8.067496 -18.088624
RightArm 26.646000 -12.032357 70.267096
RightForeArm -6.474907 0.000000 15.918245
RightHand 4.898688 0.000000 7.920535
RightHandThumb1 -24.326973 -0.000000 -32.862282
LeftUpLeg -10.539697 11.629698 23.254035
LeftLeg 18.156596 -0.000000 -0.000000
LeftFoot -17.169621 14.159446 -20.545513
LeftToeBase -2.632991 -0.000000 0.000000
RightUpLeg -78.740578 -46.361670 -4.388743
RightLeg 81.000582 -0.000000 -0.000000
RightFoot 40.159205 -19.665007 3.846882
RightToeBase 33.369502 -0.000000 -0.000000
2529
root 2.870346 33.872298 -5.293368 20.765732 -29.276771 -35.132555
Spine 3.318440 17.567723 17.439354
Head 9.286616 0.052680 11.655656
LeftShoulder -20.287185 40.840046 20.402887
LeftArm 54.030839 -50.786463 -67.725909
LeftForeArm 2.583320 0.000000 9.039486
LeftHand 10.105951 -0.000000 4.719654
LeftHandThumb1 -26.253704 0.000000 33.147579
RightShoulder 1.842397 8.043843 -18.171349
RightArm 26.772986 -12.182154 70.114252
RightForeArm -6.384601 0.000000 15.988852
RightHand 4.837018 -0.000000 8.013650
RightHandThumb1 -24.326973 -0.000000 -32.862282
LeftUpLeg -10.303375 11.777191 23.674403
LeftLeg 18.240283 -0.000000 -0.000000
LeftFoot -16.964301 14.619283 -20.068799
LeftToeBase -2.895984 -0.000000 0.000000
RightUpLeg -78.697096 -46.309275 -4.650582
RightLeg 80.146214 -0.000000 -0.000000
RightFoot 40.319399 -19.460035 3.861619
RightToeBase 33.268310 -0.000000 -0.000000
2530
root 2.848990 33.890000 -5.265762 20.784397 -29.341586 -35.573511
Spine 3.523065 17.700161 17.924531
Head 9.319696 0.125169 11.552034
LeftShoulder -20.342116 40.888435 20.299780
LeftArm 53.982043 -50.757348 -67.755036
LeftForeArm 2.813720 -0.000000 9.121107
LeftHand 10.099687 0.000000 4.796559
LeftHandThumb1 -26.253704 0.000000 33.147579
RightShoulder 1.870243 8.020943 -18.199347
RightArm 26.887233 -12.212489 70.008083
RightForeArm -6.409773 -0.000000 16.033941
RightHand 4.829996 -0.000000 7.801048
RightHandThumb1 -24.326973 -0.000000 -32.862282
LeftUpLeg -10.036502 11.953376 24.046874
LeftLeg 18.299306 -0.000000 -0.000000
LeftFoot -16.679298 14.986335 -19.622006
LeftToeBase -3.319007 -0.000000 0.000000
RightUpLeg -78.653456 -46.281410 -4.985453
RightLeg 79.264860 -0.000000 -0.000000
RightFoot 40.385581 -19.554621 3.966996
RightToeBase 33.201441 -0.000000 -0.000000
2531
root 2.827281 33.908285 -5.235802 20.807652 -29.414358 -36.000396
Spine 3.698967 17.808080 18.387744
Head 9.392893 0.237973 11.472277
LeftShoulder -20.454305 40.973292 20.174496
LeftArm 54.176320 -50.789646 -68.040581
LeftForeArm 3.148321 -0.000000 9.138297
LeftHand 10.048342 -0.000000 4.791494
LeftHandThumb1 -26.253704 0.000000 33.147579
RightShoulder 1.917244 8.005889 -18.193781
RightArm 27.014835 -12.282090 69.862309
RightForeArm -6.314237 -0.000000 16.075490
RightHand 4.631946 -0.000000 7.691774
RightHandThumb1 -24.326973 -0.000000 -32.862282
LeftUpLeg -9.767747 12.145987 24.397307
LeftLeg 18.328787 -0.000000 -0.000000
LeftFoot -16.421220 15.415960 -19.156193
LeftToeBase -3.571240 -0.000000 0.000000
RightUpLeg -78.623569 -46.255088 -5.346418
RightLeg 78.350575 -0.000000 -0.000000
RightFoot 40.405601 -19.818914 3.990735
RightToeBase 33.328730 -0.000000 -0.000000
2532
root 2.805492 33.928740 -5.210668 20.939186 -29.499145 -36.479501
Spine 3.783733 17.974135 18.869199
Head 9.508576 0.326161 11.418704
LeftShoulder -20.527374 41.050879 20.090234
LeftArm 54.210277 -50.756524 -68.188762
LeftForeArm 3.317894 -0.000000 9.181546
LeftHand 10.094981 0.000000 4.739791
LeftHandThumb1 -26.253704 0.000000 33.147579
RightShoulder 1.929498 8.016278 -18.200027
RightArm 27.119633 -12.402661 69.731390
RightForeArm -6.200573 -0.000000 16.112646
RightHand 4.820169 -0.000000 7.441349
RightHandThumb1 -24.326973 -0.000000 -32.862282
LeftUpLeg -9.566174 12.372445 24.772100
LeftLeg 18.345217 -0.000000 -0.000000
LeftFoot -16.090507 15.921625 -18.591745
LeftToeBase -3.957519 -0.000000 0.000000
RightUpLeg -78.720844 -46.189974 -5.608202
RightLeg 77.440167 -0.000000 -0.000000
RightFoot 40.513492 -19.801180 3.693679
RightToeBase 32.867117 -0.000000 -0.000000
2533
root 2.790424 33.900184 -5.172863 21.009987 -29.788752 -35.443360
Spine 2.785298 18.155303 17.318628
Head 9.780276 0.324175 12.110734
LeftShoulder -20.495350 41.159510 20.488045
LeftArm 53.903265 -50.657795 -67.827045
LeftForeArm 3.147455 0.000000 9.156479
LeftHand 10.121556 -0.000000 4.554768
LeftHandThumb1 -26.253704 0.000000 33.147579
RightShoulder 1.873425 7.915860 -17.827170
RightArm 27.209610 -12.480337 69.796274
RightForeArm -6.450117 -0.000000 16.169620
RightHand 4.842133 0.000000 7.708582
RightHandThumb1 -24.326973 -0.000000 -32.862282
LeftUpLeg -10.112669 12.323209 23.569997
LeftLeg 18.281939 -0.000000 -0.000000
LeftFoot -15.713972 16.914990 -17.865815
LeftToeBase -4.419096 -0.000000 0.000000
RightUpLeg -80.047979 -46.631465 -6.599100
RightLeg 76.804050 -0.000000 -0.000000
RightFoot 40.539103 -19.918012 3.802380
RightToeBase 33.176361 -0.000000 -0.000000
2534
root 2.730281 34.016123 -5.085091 19.461968 -29.627238 -37.781013
Spine 6.222831 17.580878 21.016254
Head 9.528106 0.546299 10.888686
LeftShoulder -20.765837 41.049955 19.540083
LeftArm 54.554884 -50.876347 -69.087092
LeftForeArm 3.751028 -0.000000 9.479887
LeftHand 10.070753 0.000000 4.830723
LeftHandThumb1 -26.253704 0.000000 33.147579
RightShoulder 2.085877 8.377108 -18.202174
RightArm 27.298104 -12.433870 69.288657
RightForeArm -6.351180 -0.000000 16.160461
RightHand 4.814053 -0.000000 7.589993
RightHandThumb1 -24.326973 -0.000000 -32.862282
LeftUpLeg -7.045181 11.856237 26.175885
LeftLeg 17.950435 -0.000000 -0.000000
LeftFoot -15.067069 17.399357 -17.064695
LeftToeBase -5.073729 -0.000000 0.000000
RightUpLeg -75.945799 -45.962266 -7.918799
RightLeg 75.506305 -0.000000 -0.000000
RightFoot 40.333730 -19.819681 3.436783
RightToeBase 33.205814 -0.000000 -0.000000
2535
root 2.701608 34.044310 -5.053250 19.597407 -29.595233 -38.316407
Spine 6.263643 17.568289 21.614913
Head 9.731182 0.583793 10.798951
LeftShoulder -20.844894 41.085533 19.462800
LeftArm 54.465360 -50.854646 -69.248666
LeftForeArm 3.859873 -0.000000 9.590989
LeftHand 10.007453 0.000000 4.701870
LeftHandThumb1 -26.253704 0.000000 33.147579
RightShoulder 2.128298 8.438721 -18.182130
RightArm 27.431644 -12.556989 69.174886
RightForeArm -6.265261 -0.000000 16.104089
RightHand 4.785075 0.000000 7.509877
RightHandThumb1 -24.326973 -0.000000 -32.862282
LeftUpLeg -6.838687 11.724971 26.605865
LeftLeg 17.902034 -0.000000 -0.000000
LeftFoot -14.769675 18.323005 -16.417293
LeftToeBase -5.794289 -0.000000 0.000000
RightUpLeg -75.894702 -45.992715 -8.324799
RightLeg 74.541048 -0.000000 -0.000000
RightFoot 40.417198 -19.639861 3.238472
RightToeBase 33.189321 -0.000000 -0.000000
2536
root 2.667877 34.041501 -5.097796 21.594189 -29.566062 -38.641806
Spine 3.885009 18.295194 21.020009
Head 10.281867 0.488363 11.342576
LeftShoulder -20.808841 41.243986 19.898675
LeftArm 53.886589 -50.674637 -68.701651
LeftForeArm 3.620818 -0.000000 9.573117
LeftHand 9.892214 -0.000000 4.257885
LeftHandThumb1 -26.253704 0.000000 33.147579
RightShoulder 2.066555 8.277150 -17.971177
RightArm 27.508776 -12.797609 69.335177
RightForeArm -6.281221 -0.000000 16.056383
RightHand 4.851295 -0.000000 7.507444
RightHandThumb1 -24.326973 -0.000000 -32.862282
LeftUpLeg -8.714359 12.452953 26.541839
LeftLeg 18.191536 -0.000000 -0.000000
LeftFoot -14.674662 18.997765 -15.896650
LeftToeBase -6.370292 -0.000000 0.000000
RightUpLeg -78.738131 -46.087498 -7.090320
RightLeg 73.718021 -0.000000 -0.000000
RightFoot 40.567323 -19.508483 3.101450
RightToeBase 33.173236 -0.000000 -0.000000
